<?xml version="1.0" standalone="no"?>
<!DOCTYPE svg PUBLIC "-//W3C//DTD SVG 20010904//EN"
 "http://www.w3.org/TR/2001/REC-SVG-20010904/DTD/svg10.dtd">
<svg version="1.0" xmlns="http://www.w3.org/2000/svg"
 width="500.000000pt" height="500.000000pt" viewBox="0 0 500.000000 500.000000"
 preserveAspectRatio="xMidYMid meet">

<g transform="translate(0.000000,500.000000) scale(0.100000,-0.100000)"
fill="#000000" stroke="none">
<path d="M2360 4738 c-205 -22 -409 -138 -534 -301 -160 -210 -208 -471 -128
-705 83 -243 282 -588 582 -1007 121 -169 139 -188 175 -188 37 0 53 19 184
203 228 320 376 557 471 755 107 223 140 335 140 470 -1 463 -418 826 -890
773z m195 -333 c123 -32 212 -106 269 -225 28 -59 31 -74 31 -160 0 -86 -3
-101 -32 -162 -41 -88 -113 -160 -201 -201 -61 -29 -75 -32 -167 -32 -88 0
-107 3 -158 27 -203 95 -294 334 -203 533 31 69 64 109 128 157 93 70 215 93
333 63z"/>
<path d="M2359 2125 c-149 -28 -353 -108 -534 -208 -107 -59 -266 -159 -315
-197 -34 -27 -37 -27 -146 -22 -290 12 -652 -83 -1035 -272 -52 -26 -104 -55
-116 -64 -13 -10 -43 -72 -74 -152 -49 -123 -53 -143 -57 -232 -5 -119 10
-194 45 -232 42 -46 80 -56 213 -56 l120 0 0 48 c1 218 162 423 378 482 55 14
199 14 254 0 122 -33 259 -141 317 -249 36 -68 61 -165 61 -238 l0 -53 1010 0
1010 0 0 50 c0 193 116 371 297 458 73 34 85 37 188 40 92 3 120 0 175 -18
205 -68 350 -265 350 -474 l0 -56 64 0 c108 0 151 27 194 120 l26 55 -1 341
c-1 384 -1 380 -75 434 -57 42 -127 60 -228 60 -110 0 -165 17 -298 90 -293
162 -701 280 -1157 336 -187 22 -569 28 -666 9z m406 -100 c121 -6 245 -17
323 -30 l32 -6 0 -193 0 -193 -357 -6 c-197 -4 -431 -10 -520 -13 l-163 -7 0
54 c1 116 68 230 180 303 118 77 220 108 330 100 25 -2 104 -6 175 -9z m552
-66 c62 -11 67 -14 152 -98 86 -84 191 -221 191 -248 0 -10 -43 -13 -220 -13
l-220 0 0 185 c0 210 -10 193 97 174z m-1261 -87 c-42 -63 -66 -132 -74 -219
l-7 -67 -70 3 c-108 3 -300 35 -310 52 -4 6 104 80 215 147 49 29 274 141 278
137 1 -1 -13 -25 -32 -53z m922 -458 c16 -11 22 -24 20 -42 -5 -44 -38 -53
-176 -50 -133 3 -142 7 -142 61 0 39 24 46 160 46 90 1 121 -2 138 -15z m1707
-114 l0 -55 -90 0 -90 0 -3 44 c-5 71 -4 72 95 69 l88 -3 0 -55z m-4253 13
c24 -22 23 -34 -12 -104 -20 -39 -39 -63 -56 -69 -33 -13 -134 -13 -134 0 0
16 42 124 54 139 14 18 85 50 110 51 11 0 28 -7 38 -17z"/>
<path d="M862 1114 c-146 -39 -250 -145 -288 -294 -42 -166 27 -343 173 -440
l46 -30 -356 0 c-310 0 -358 -2 -371 -16 -20 -20 -20 -48 0 -68 14 -14 228
-16 2209 -16 1981 0 2195 2 2209 16 19 18 20 38 6 65 -10 17 -23 19 -168 20
l-157 0 30 22 c75 55 152 144 175 202 30 76 33 215 6 285 -110 293 -495 361
-692 122 -64 -77 -88 -148 -88 -262 -1 -86 2 -101 30 -161 37 -77 86 -135 151
-179 l46 -30 -1344 1 c-1044 0 -1340 3 -1325 12 107 69 172 153 201 262 80
293 -198 569 -493 489z m161 -238 c42 -17 83 -66 96 -113 31 -113 -76 -221
-196 -198 -48 9 -107 68 -122 120 -35 127 100 243 222 191z m3051 -9 c45 -25
86 -93 86 -141 0 -55 -40 -118 -90 -143 -56 -29 -104 -29 -155 0 -70 39 -103
129 -74 204 34 91 146 130 233 80z"/>
<path d="M4643 343 c-7 -2 -13 -20 -13 -39 0 -46 23 -54 158 -54 117 0 155 12
160 48 7 47 -10 52 -157 51 -75 0 -142 -3 -148 -6z"/>
</g>
</svg>
