<?xml version="1.0" standalone="no"?>
<!DOCTYPE svg PUBLIC "-//W3C//DTD SVG 20010904//EN"
 "http://www.w3.org/TR/2001/REC-SVG-20010904/DTD/svg10.dtd">
<svg version="1.0" xmlns="http://www.w3.org/2000/svg"
 width="500.000000pt" height="500.000000pt" viewBox="0 0 500.000000 500.000000"
 preserveAspectRatio="xMidYMid meet">

<g transform="translate(0.000000,500.000000) scale(0.100000,-0.100000)"
fill="#000000" stroke="none">
<path d="M2420 4993 c-48 -8 -145 -44 -185 -68 -62 -39 -150 -131 -184 -194
-182 -342 61 -751 446 -752 139 -1 250 42 350 135 107 100 163 228 163 376 0
308 -288 554 -590 503z"/>
<path d="M1951 3836 c-49 -18 -106 -70 -130 -119 -21 -42 -21 -54 -21 -620 0
-637 -2 -618 63 -685 35 -37 86 -66 132 -76 l30 -7 73 -581 c54 -434 77 -590
90 -612 10 -17 38 -41 62 -54 44 -22 52 -23 265 -20 212 3 221 4 253 26 18 13
39 36 47 52 9 18 42 249 87 609 l73 580 30 7 c46 10 97 39 132 76 65 67 63 49
63 680 l0 573 -24 50 c-28 60 -56 87 -116 114 -43 20 -62 21 -560 20 -378 0
-524 -4 -549 -13z"/>
<path d="M975 1890 c-257 -88 -471 -214 -620 -364 -151 -154 -208 -277 -209
-456 0 -179 53 -305 191 -450 142 -150 343 -273 608 -373 727 -274 1844 -324
2705 -121 665 157 1082 431 1186 779 27 90 25 240 -5 330 -85 263 -360 491
-775 645 -60 22 -132 43 -160 46 -92 10 -183 -38 -233 -124 -23 -39 -27 -58
-27 -117 0 -59 4 -78 27 -117 37 -64 75 -90 190 -132 202 -73 338 -148 434
-239 92 -87 103 -133 52 -210 -59 -90 -255 -210 -473 -292 -202 -75 -519 -143
-841 -182 -188 -22 -811 -25 -1000 -5 -376 40 -653 99 -900 192 -290 108 -495
260 -495 366 0 57 76 140 198 219 86 55 177 98 317 150 117 43 155 69 190 130
90 153 -11 345 -189 361 -41 4 -74 -3 -171 -36z"/>
</g>
</svg>
